<svg id="Capa_1" data-name="Capa 1" xmlns="http://www.w3.org/2000/svg" viewBox="0 0 463.44 385.12"><defs><style>.cls-1{fill:#f5f5f5;}.cls-2{fill:#e0e0e0;}.cls-3{fill:#ebebeb;}.cls-4{fill:#fafafa;}.cls-5{fill:#263238;}.cls-6{fill:#455a64;}.cls-7{fill:#8da0ff;}</style></defs><title>fondo1</title><g id="freepik--background-complete--inject-520"><path class="cls-1" d="M349,398.16c-12.85-9-15.77-25.63-15.26-40.64.08-2.48-.19-5.14,1-7.33s4-3.7,6.21-2.65c1.85.88,2.66,3,3.7,4.83a14.71,14.71,0,0,0,5.87,5.6c1.6.82,3.57,1.34,5.14.47,2.15-1.19,2.41-4.18,2.39-6.66q0-7-.08-13.92a23,23,0,0,1,.75-7.39,7.74,7.74,0,0,1,4.85-5.22c2.37-.66,5.3.71,5.79,3.15a24.48,24.48,0,0,1,.07,3.09,2.66,2.66,0,0,0,1.53,2.48c1,.3,2-.41,2.73-1.14,2.57-2.48,4.31-5.79,5.94-9s3.21-6.51,5.54-9.25,5.56-4.91,9.09-5.11,7.36,2,8.27,5.49-1.14,7.07-3.37,9.92a55.79,55.79,0,0,1-11.58,11A4.63,4.63,0,0,0,385.6,338c-.54,1.65,1,3.31,2.67,3.85,1.86.62,3.87.43,5.79.66s4,1.08,4.77,2.91c1,2.54-1.11,5.21-3.2,7a47.61,47.61,0,0,1-14.06,8.12,16.11,16.11,0,0,0-5.23,2.55c-1.48,1.29-2.36,3.52-1.47,5.27s3.17,2.32,5.09,2,3.64-1.39,5.47-2.09c3.41-1.29,7.83-1.05,10,1.9a7.86,7.86,0,0,1,.82,7,18.08,18.08,0,0,1-3.77,6.15,47.92,47.92,0,0,1-20.43,14.36c-7.93,2.75-15.28,3.49-23.14.61" transform="translate(-35.6 -93.28)"/><path class="cls-2" d="M348.76,409.27a110.16,110.16,0,0,1,4.06-20.51,224.21,224.21,0,0,1,8.85-24l2.65-6.18c.87-2,1.74-4,2.7-5.94A111.64,111.64,0,0,1,373.21,342c2.13-3.31,4.27-6.35,6.3-9.19s4-5.44,5.85-7.73A86.71,86.71,0,0,1,395,314.92c1.22-1.12,2.21-1.94,2.88-2.48l.77-.62a1.35,1.35,0,0,1,.27-.2,1.31,1.31,0,0,1-.24.23l-.74.67c-.65.57-1.65,1.42-2.82,2.55a93.12,93.12,0,0,0-9.5,10.26c-1.85,2.31-3.78,4.91-5.79,7.75s-4.13,5.9-6.25,9.2a112.27,112.27,0,0,0-6.14,10.63c-1,1.9-1.81,3.89-2.69,5.93L362.1,365a229.74,229.74,0,0,0-8.87,24,111.85,111.85,0,0,0-4.13,20.42" transform="translate(-35.6 -93.28)"/><path class="cls-2" d="M367.16,352.63a4.41,4.41,0,0,1-.25-1.06c-.13-.69-.28-1.65-.47-2.93-.34-2.48-.71-5.92-1.1-9.7s-.83-7.22-1.2-9.68c-.19-1.24-.36-2.24-.48-2.92a5,5,0,0,1-.14-1.09,4.86,4.86,0,0,1,.31,1.05c.18.67.39,1.65.62,2.9.47,2.48.95,5.88,1.34,9.69s.72,7.12,1,9.71c.12,1.17.23,2.15.32,2.94A6.65,6.65,0,0,1,367.16,352.63Z" transform="translate(-35.6 -93.28)"/><path class="cls-2" d="M399.14,346.65a7.74,7.74,0,0,1-1.27.16c-.83.06-2,.16-3.47.34-2.94.31-7,.89-11.39,1.72s-8.39,1.77-11.24,2.53c-1.42.37-2.57.7-3.37.92a5.93,5.93,0,0,1-1.24.31,6.44,6.44,0,0,1,1.19-.48c.82-.27,1.91-.66,3.3-1.06,2.84-.83,6.81-1.83,11.25-2.67a112.61,112.61,0,0,1,11.43-1.6c1.47-.13,2.67-.18,3.5-.19A6.38,6.38,0,0,1,399.14,346.65Z" transform="translate(-35.6 -93.28)"/><path class="cls-2" d="M353.22,388.18a3.52,3.52,0,0,1-.22-.39l-.55-1.16c-.47-1-1.11-2.48-1.89-4.32-1.53-3.66-3.51-8.79-5.61-14.48s-4-10.83-5.49-14.52l-1.72-4.37c-.19-.48-.35-.87-.47-1.19a1.64,1.64,0,0,1-.13-.43,1.47,1.47,0,0,1,.21.39l.56,1.16c.46,1,1.1,2.48,1.87,4.31,1.55,3.67,3.53,8.8,5.62,14.49s4,10.83,5.49,14.52l1.75,4.37.47,1.19A2.09,2.09,0,0,1,353.22,388.18Z" transform="translate(-35.6 -93.28)"/><path class="cls-2" d="M395.73,374.48a1.68,1.68,0,0,1-.42.17l-1.24.41-4.55,1.48c-3.85,1.24-9.14,3-15,5s-11.16,3.71-15,4.88c-1.95.58-3.51,1-4.6,1.33l-1.27.33a1.33,1.33,0,0,1-.44.09,1.57,1.57,0,0,1,.42-.18l1.23-.41,4.56-1.47c3.84-1.25,9.09-3,15-5s11.15-3.71,15-4.88c1.94-.59,3.51-1,4.6-1.34l1.26-.33A1.78,1.78,0,0,1,395.73,374.48Z" transform="translate(-35.6 -93.28)"/><path class="cls-2" d="M416.61,335a3.23,3.23,0,0,1-.33-.49l-.83-1.33-2.81-4.67.26.07-6.54,3.82c0,.06.15-.56.07-.29h0v.05l.07.11.12.23.27.45.5.87,1,1.71,1.78,3.11-.26-.06c1.95-1.1,3.6-2,4.77-2.65l1.38-.73a2.61,2.61,0,0,1,.53-.26c-.14.11-.28.2-.42.29l-1.3.83c-1.13.69-2.77,1.69-4.77,2.87l-.17.09-.09-.16-1.81-3.1-1-1.7-.5-.87-.27-.45-.12-.23-.07-.11v-.06h0c-.06.27.1-.35.08-.28l6.62-3.78.15-.09.1.15c1.14,2,2.07,3.72,2.7,4.87.29.54.53,1,.72,1.35A1.85,1.85,0,0,1,416.61,335Z" transform="translate(-35.6 -93.28)"/><rect class="cls-2" x="159.43" y="113.46" width="7.99" height="39.78" transform="translate(-36.32 -92.39) rotate(-0.31)"/><rect class="cls-3" x="90.12" y="113.6" width="20.71" height="21.97" transform="translate(-36.27 -92.73) rotate(-0.31)"/><rect class="cls-1" x="110.72" y="113.48" width="20.71" height="21.97" transform="translate(-36.27 -92.62) rotate(-0.31)"/><path class="cls-2" d="M90.09,119.72c13.76.12,27.55,0,41.34-.19a.22.22,0,0,0,0-.43q-20.64-.12-41.34.24a.19.19,0,0,0,0,.38Z" transform="translate(-35.6 -93.28)"/><rect class="cls-3" x="77.2" y="135.24" width="37.62" height="17.9" transform="translate(-36.38 -92.75) rotate(-0.31)"/><rect class="cls-1" x="114.64" y="135.04" width="37.62" height="17.9" transform="translate(-36.38 -92.55) rotate(-0.31)"/><path class="cls-2" d="M77.17,140.31c25,.28,50.07,0,75.06-.37a.22.22,0,0,0,.17-.26.23.23,0,0,0-.17-.18c-25-.13-50.08-.12-75.06.43a.19.19,0,0,0,0,.38Z" transform="translate(-35.6 -93.28)"/><rect class="cls-2" x="27.5" y="59.97" width="145.74" height="6.42"/><rect class="cls-2" x="51.36" y="63.06" width="5.92" height="21.88"/><rect class="cls-2" x="139.68" y="63.06" width="5.92" height="21.88"/><rect class="cls-3" x="167.28" y="98.62" width="7.99" height="54.72" transform="translate(-36.28 -92.35) rotate(-0.31)"/><rect class="cls-1" x="175.31" y="108.82" width="12.43" height="44.35" transform="translate(-36.31 -92.29) rotate(-0.31)"/><path class="cls-2" d="M187.53,117.34a44.46,44.46,0,0,1-6.21.21,46.13,46.13,0,0,1-6.22-.21,44.55,44.55,0,0,1,6.22-.22A44.46,44.46,0,0,1,187.53,117.34Z" transform="translate(-35.6 -93.28)"/><path class="cls-2" d="M187.53,115.51a46,46,0,0,1-6.21.21,46.13,46.13,0,0,1-6.22-.21,44.55,44.55,0,0,1,6.22-.22A44.46,44.46,0,0,1,187.53,115.51Z" transform="translate(-35.6 -93.28)"/><path class="cls-2" d="M187.53,146.46a42.94,42.94,0,0,1-6.21.22,43.07,43.07,0,0,1-6.22-.22,46.13,46.13,0,0,1,6.22-.21A46,46,0,0,1,187.53,146.46Z" transform="translate(-35.6 -93.28)"/><path class="cls-2" d="M187.53,144.6a44.46,44.46,0,0,1-6.21.22,44.55,44.55,0,0,1-6.22-.22,46.13,46.13,0,0,1,6.22-.21A46,46,0,0,1,187.53,144.6Z" transform="translate(-35.6 -93.28)"/><path class="cls-2" d="M181.49,140.54c-.11,0-.21-4.48-.21-10s.1-10,.21-10,.22,4.47.22,10S181.63,140.54,181.49,140.54Z" transform="translate(-35.6 -93.28)"/><rect class="cls-3" x="152.06" y="26.41" width="13.53" height="33.47"/><path class="cls-4" d="M194.81,144.44a2.91,2.91,0,0,1-3-2.79v-.22a2.63,2.63,0,0,1,1.1-2.26l.31.42a2.18,2.18,0,0,0-.89,1.84,2.51,2.51,0,0,0,5,0,2.18,2.18,0,0,0-.9-1.84l.32-.42a2.64,2.64,0,0,1,1.09,2.26,2.91,2.91,0,0,1-2.8,3Z" transform="translate(-35.6 -93.28)"/><path class="cls-4" d="M197.07,138.38l-.47-.27a3.39,3.39,0,0,0,.72-2.14c0-1.26-.43-1.76-1.11-1.76-1.73,0-.46,3.95-2.8,3.95-.9,0-1.65-.75-1.65-2.26a3.69,3.69,0,0,1,.58-2l.46.26a3.07,3.07,0,0,0-.54,1.79c0,1.17.48,1.66,1.12,1.66,1.79,0,.52-4,2.79-4,1,0,1.66.83,1.66,2.35A3.83,3.83,0,0,1,197.07,138.38Z" transform="translate(-35.6 -93.28)"/><path class="cls-4" d="M197.07,132.93l-.47-.27a3.4,3.4,0,0,0,.72-2.15c0-1.25-.43-1.75-1.11-1.75-1.73,0-.46,3.94-2.8,3.94-.9,0-1.65-.75-1.65-2.25a3.67,3.67,0,0,1,.58-2l.46.26a3.09,3.09,0,0,0-.54,1.79c0,1.16.48,1.66,1.12,1.66,1.79,0,.52-4,2.79-4,1,0,1.66.83,1.66,2.35A3.79,3.79,0,0,1,197.07,132.93Z" transform="translate(-35.6 -93.28)"/><circle class="cls-2" cx="135.4" cy="14.68" r="2.3"/><rect class="cls-2" x="134.69" y="20.99" width="1.42" height="32.55"/><path class="cls-2" d="M238.77,239.08a85.08,85.08,0,0,1,6-6.31,83.15,83.15,0,0,1,6.31-6c.08.08-2.61,2.9-6,6.31S238.85,239.16,238.77,239.08Z" transform="translate(-35.6 -93.28)"/><path class="cls-2" d="M251.08,239.08c-.09.08-2.91-2.61-6.31-6a85.08,85.08,0,0,1-6-6.31,84.94,84.94,0,0,1,6.3,6C248.46,236.21,251.16,239,251.08,239.08Z" transform="translate(-35.6 -93.28)"/><path class="cls-2" d="M221.89,131.33a63.89,63.89,0,0,1-.83-7.44,63.75,63.75,0,0,1-.44-7.44,66.47,66.47,0,0,1,.87,7.44A63.84,63.84,0,0,1,221.89,131.33Z" transform="translate(-35.6 -93.28)"/><path class="cls-2" d="M228.7,123.22a64.13,64.13,0,0,1-7.44.83,68.6,68.6,0,0,1-7.44.44,61.86,61.86,0,0,1,7.44-.87A63.72,63.72,0,0,1,228.7,123.22Z" transform="translate(-35.6 -93.28)"/><path class="cls-2" d="M152.86,213.06a1.14,1.14,0,0,1-.15-.23l-.41-.66-1.5-2.48-5.18-8.78.26.06-12.24,7.13c0,.07.15-.55.08-.29h0v.05l.06.11.12.21.25.42.48.82.94,1.66,1.82,3.17,3.3,5.79-.25-.08,8.88-5,2.53-1.41.68-.36.26-.13a7.28,7.28,0,0,1-.83.53l-2.48,1.47-8.89,5.24-.16.1-.09-.17L137,214.43l-1.83-3.16-1-1.66-.48-.82-.24-.42-.12-.21-.07-.11V208h0c-.06.26.1-.36.09-.3l12.31-7,.16-.09.09.16,5.09,9,1.38,2.48C152.57,212.5,152.72,212.78,152.86,213.06Z" transform="translate(-35.6 -93.28)"/><path class="cls-2" d="M423.64,292.7a5.64,5.64,0,0,0-.37-.72,3.33,3.33,0,0,0-1.66-1.37,3.19,3.19,0,0,0-3,.35,3.14,3.14,0,1,0,3.63,5.13,3,3,0,0,0,.63-.6,3.28,3.28,0,0,0,.75-2c0-.52-.06-.83,0-.83a1.5,1.5,0,0,1,.19.83,3.29,3.29,0,0,1-.67,2.16,3.45,3.45,0,0,1-3.06,1.37,3.51,3.51,0,0,1-1.65-6.41,3.47,3.47,0,0,1,3.3-.3,3.3,3.3,0,0,1,1.66,1.57A1.59,1.59,0,0,1,423.64,292.7Z" transform="translate(-35.6 -93.28)"/><path class="cls-2" d="M269.12,95.93s-.11-.28-.38-.72a3.27,3.27,0,0,0-1.65-1.37,3.19,3.19,0,0,0-3,.36,3.14,3.14,0,1,0,3.63,5.12,3.22,3.22,0,0,0,.63-.59,3.37,3.37,0,0,0,.75-2c0-.52-.06-.82,0-.82a1.77,1.77,0,0,1,.19.82,3.38,3.38,0,0,1-.68,2.17,3.46,3.46,0,0,1-3.06,1.36,3.51,3.51,0,0,1-3.18-3.82,3.57,3.57,0,0,1,1.53-2.59,3.47,3.47,0,0,1,3.3-.3,3.34,3.34,0,0,1,1.66,1.57A1.64,1.64,0,0,1,269.12,95.93Z" transform="translate(-35.6 -93.28)"/><path class="cls-2" d="M115.35,190.55a5.13,5.13,0,0,0-.38-.72,3.27,3.27,0,0,0-1.65-1.37,3.19,3.19,0,0,0-3,.35,3.13,3.13,0,0,0,1.48,5.69,3.19,3.19,0,0,0,2.78-1.16,3.34,3.34,0,0,0,.75-2c0-.51-.07-.83,0-.83a1.84,1.84,0,0,1,.19.83,3.32,3.32,0,0,1-.67,2.17,3.45,3.45,0,0,1-3,1.34,3.5,3.5,0,1,1,1.66-6.71,3.4,3.4,0,0,1,1.65,1.57A1.68,1.68,0,0,1,115.35,190.55Z" transform="translate(-35.6 -93.28)"/><path class="cls-2" d="M409.43,177.33c-.05,0-.18-.6-.72-1.57a7,7,0,0,0-6.62-3.52,6.9,6.9,0,0,0-3.41,1.22,6.41,6.41,0,0,0-1.45,1.35,6.72,6.72,0,0,0-1,1.78,6.84,6.84,0,0,0,2.05,7.85,6.47,6.47,0,0,0,1.77,1.05,6.67,6.67,0,0,0,1.92.47,6.91,6.91,0,0,0,3.58-.61,6.81,6.81,0,0,0,2.48-2,7,7,0,0,0,1.53-4.32c0-1.12-.19-1.72-.13-1.73a2.23,2.23,0,0,1,.13.44,6.17,6.17,0,0,1,.18,1.29,7.22,7.22,0,0,1-9.87,6.81,6.62,6.62,0,0,1-1.88-1.11,7.21,7.21,0,0,1-2.17-8.33,6.58,6.58,0,0,1,1.1-1.88,6.92,6.92,0,0,1,1.54-1.42,7.18,7.18,0,0,1,6.9-.68,7,7,0,0,1,3.49,3.23,5.19,5.19,0,0,1,.48,1.2A2.54,2.54,0,0,1,409.43,177.33Z" transform="translate(-35.6 -93.28)"/><path class="cls-2" d="M329.52,125.88s-.15-.25-.44-.77l-1.26-2.27c-1.05-2-2.57-4.79-4.29-8.1l-.17-.31h.36l6.13.38,6.36.43h.35l-.19.28c-2,3.08-3.75,5.69-5,7.5L330,125.13a5.9,5.9,0,0,1-.5.7s.17-.31.5-.82l1.35-2.21c1.17-1.88,2.77-4.47,4.7-7.44l.16.31-6.36-.39-6.14-.42.2-.29c1.66,3.23,3,6,4,8l1.17,2.38A8,8,0,0,1,329.52,125.88Z" transform="translate(-35.6 -93.28)"/><path class="cls-2" d="M229.52,310.27a7.25,7.25,0,0,1,.47-.75l1.42-2.15c1.21-1.85,3-4.53,5.09-7.63l.17-.25.16.25,3.95,5.79,3.06,4.58.23.32h-.39c-4.14,0-7.75-.07-10.25-.11l-2.91-.06h-1s.42,0,1.12,0l3-.05c2.53,0,6-.11,10.06-.12l-.18.32-3.08-4.57c-1.39-2.06-2.71-4-3.92-5.84h.33c-2.07,3-3.88,5.52-5.18,7.35l-1.54,2.15C229.75,310,229.54,310.26,229.52,310.27Z" transform="translate(-35.6 -93.28)"/></g><g id="freepik--Desk--inject-520"><path class="cls-3" d="M484.66,439.58a2.54,2.54,0,0,1,2.46-2.61.67.67,0,0,1,.2,0,2.21,2.21,0,0,1,2,1l-.51.36a1.76,1.76,0,0,0-1.51-.77,2,2,0,0,0,0,4,1.76,1.76,0,0,0,1.51-.75l.51.35a2.22,2.22,0,0,1-2,1,2.56,2.56,0,0,1-2.66-2.43Z" transform="translate(-35.6 -93.28)"/><path class="cls-3" d="M490,441.58l.33-.56a3,3,0,0,0,1.83.58c1,0,1.38-.33,1.38-.83,0-1.36-3.35-.29-3.35-2.34,0-.84.73-1.46,2.05-1.46a3.34,3.34,0,0,1,1.82.48l-.3.56a2.66,2.66,0,0,0-1.52-.45c-.94,0-1.34.37-1.34.86,0,1.4,3.35.33,3.35,2.32,0,.9-.78,1.48-2.12,1.48A3.52,3.52,0,0,1,490,441.58Z" transform="translate(-35.6 -93.28)"/><path class="cls-3" d="M494.8,441.58l.32-.56a3,3,0,0,0,1.83.58c1,0,1.39-.33,1.39-.83,0-1.36-3.35-.29-3.35-2.34,0-.84.72-1.46,2-1.46a3.34,3.34,0,0,1,1.82.48l-.3.56a2.66,2.66,0,0,0-1.52-.45c-.94,0-1.34.37-1.34.86,0,1.4,3.35.33,3.35,2.32,0,.9-.78,1.48-2.12,1.48A3.49,3.49,0,0,1,494.8,441.58Z" transform="translate(-35.6 -93.28)"/><circle class="cls-3" cx="428.41" cy="346.46" r="2.35"/><rect class="cls-5" x="15.58" y="222.59" width="189.75" height="129.29" rx="13.41"/><polygon class="cls-6" points="78.74 321.15 68.24 380.63 117.54 380.63 126.46 319.94 78.74 321.15"/><rect class="cls-6" x="8.05" y="222.59" width="189.75" height="129.29" rx="13.41"/><polygon class="cls-5" points="121.77 351.88 126.46 319.94 127.77 351.88 121.77 351.88"/><path class="cls-5" d="M114.61,411.12c.16,0-1,7.95-2.67,17.68s-3.07,17.61-3.24,17.59,1-7.95,2.67-17.68S114.45,411.1,114.61,411.12Z" transform="translate(-35.6 -93.28)"/><rect class="cls-6" x="161.53" y="369.87" width="107.95" height="7.61"/><path class="cls-6" d="M171.31,460.22h5.4a8.68,8.68,0,0,1,8.68,8.67h0v1.87H162.7v-1.87A8.67,8.67,0,0,1,171.31,460.22Z" transform="translate(-35.6 -93.28)"/><path class="cls-5" d="M185,468.39a104.71,104.71,0,0,1-10.92.29,105.09,105.09,0,0,1-10.94-.29,99.85,99.85,0,0,1,10.94-.29A99.49,99.49,0,0,1,185,468.39Z" transform="translate(-35.6 -93.28)"/><path class="cls-5" d="M174.23,460.13a13.49,13.49,0,0,1,.19,4,14.1,14.1,0,0,1-.4,4,14.12,14.12,0,0,1-.18-4A15,15,0,0,1,174.23,460.13Z" transform="translate(-35.6 -93.28)"/><rect class="cls-5" y="377.48" width="444.52" height="7.64"/></g><path class="cls-7" d="M94.73,355.9a7.31,7.31,0,0,0-5.57-4.73l-5.18-1A7.81,7.81,0,0,1,81.23,356l4,3.42a7.31,7.31,0,0,0,7.18,1.32l2.38-.85" transform="translate(-35.6 -93.28)"/><path class="cls-7" d="M72.43,343.24a7.78,7.78,0,0,1,6.38-.52l1-5.19a7.31,7.31,0,0,0-2.45-6.87L75.39,329a1.25,1.25,0,0,0-1.76.13h0L72,331.08a7.31,7.31,0,0,0-1.32,7.18Z" transform="translate(-35.6 -93.28)"/><path class="cls-7" d="M80.22,343.39a7.81,7.81,0,0,1,3.64,5.27l5-1.77a7.31,7.31,0,0,0,4.73-5.56l.46-2.48a1.25,1.25,0,0,0-1-1.46h0l-2.49-.46a7.33,7.33,0,0,0-6.87,2.45Z" transform="translate(-35.6 -93.28)"/><path class="cls-7" d="M57.65,344.22A7.31,7.31,0,0,0,63.21,349l5.19.95a7.83,7.83,0,0,1,2.75-5.78l-4-3.42A7.31,7.31,0,0,0,60,339.39l-2.38.85a1.24,1.24,0,0,0-.76,1.59h0Z" transform="translate(-35.6 -93.28)"/><path class="cls-7" d="M72.16,356.73a7.79,7.79,0,0,1-3.63-5.27l-5,1.77a7.29,7.29,0,0,0-4.73,5.56l-.46,2.49a1.26,1.26,0,0,0,1,1.46l2.49.45a7.33,7.33,0,0,0,6.87-2.45Z" transform="translate(-35.6 -93.28)"/><path class="cls-7" d="M80,356.88a7.78,7.78,0,0,1-6.38.52l-1,5.18a7.35,7.35,0,0,0,2.45,6.88L77,371.1a1.25,1.25,0,0,0,1.76-.13h0L80.4,369a7.33,7.33,0,0,0,1.31-7.18Z" transform="translate(-35.6 -93.28)"/><path class="cls-7" d="M72,354.1a5.9,5.9,0,1,0-1-1.47l-4.42,3.15,1.05,1.47L72,354.09Zm.18-4.77A4.07,4.07,0,1,1,75.55,354h0a4.07,4.07,0,0,1-3.33-4.68Z" transform="translate(-35.6 -93.28)"/></svg>