<svg id="Capa_1" data-name="Capa 1" xmlns="http://www.w3.org/2000/svg" viewBox="0 0 435.26 303.37"><defs><style>.cls-1{fill:#ebebeb;}.cls-2{fill:#f5f5f5;}.cls-3{fill:#f0f0f0;}.cls-10,.cls-11,.cls-4,.cls-9{fill:#96a9b2;}.cls-5,.cls-6,.cls-7{fill:#fff;}.cls-5{opacity:0.7;}.cls-10,.cls-11,.cls-5,.cls-6,.cls-8,.cls-9{isolation:isolate;}.cls-10,.cls-6{opacity:0.6;}.cls-11,.cls-8{opacity:0.3;}.cls-9{opacity:0.1;}.cls-12{fill:#6b968b;}</style></defs><title>pingu</title><g id="freepik--background-complete--inject-120"><rect class="cls-1" x="16.86" y="278.1" width="16.25" height="0.25"/><rect class="cls-1" x="38.46" y="278.1" width="36.83" height="0.25"/><rect class="cls-1" x="286.18" y="106.49" width="44.42" height="50.03" rx="6.9"/><rect class="cls-2" x="315.68" y="118.03" width="34.17" height="38.49" rx="5.31"/><path class="cls-3" d="M202.88,256.77S204,269.31,246,269.31s43.08-12.54,43.08-12.54Z" transform="translate(-35.6 -112.79)"/></g><g id="freepik--Content--inject-120"><path class="cls-4" d="M233.89,326.3H425.61a41.49,41.49,0,0,0,41.09-39.49l4.14-103.11a12.11,12.11,0,0,0-11.45-12.76c-.26,0-.52,0-.77,0H252.83a13.36,13.36,0,0,0-13.25,12.78l-4.16,103.11a41.47,41.47,0,0,1-41.07,39.49Z" transform="translate(-35.6 -112.79)"/><path class="cls-5" d="M233.89,326.3H425.61a41.49,41.49,0,0,0,41.09-39.49l4.14-103.11a12.11,12.11,0,0,0-11.45-12.76c-.26,0-.52,0-.77,0H252.83a13.36,13.36,0,0,0-13.25,12.78l-4.16,103.11a41.47,41.47,0,0,1-41.07,39.49Z" transform="translate(-35.6 -112.79)"/><path class="cls-6" d="M438.54,216.44H269a4,4,0,0,1-4-4c0-.1,0-.2,0-.3l.46-11a4.37,4.37,0,0,1,4.34-4.18H439.32a4,4,0,0,1,4,3.95,1.77,1.77,0,0,1,0,.23l-.44,11A4.4,4.4,0,0,1,438.54,216.44Z" transform="translate(-35.6 -112.79)"/><path class="cls-6" d="M438.83,237.27H267a2.84,2.84,0,0,1-2.93-2.75c0-.09,0-.19,0-.29l.17-4.17a3.18,3.18,0,0,1,3.16-3H439.25a2.83,2.83,0,0,1,2.84,2.83v.21l-.16,4.17A3.22,3.22,0,0,1,438.83,237.27Z" transform="translate(-35.6 -112.79)"/><path class="cls-6" d="M438.21,252.86H266.37a2.83,2.83,0,0,1-2.92-2.76v-.29l.18-4.18a3.17,3.17,0,0,1,3.15-3H438.62a2.84,2.84,0,0,1,2.85,2.83,1.27,1.27,0,0,1,0,.2l-.17,4.18A3.18,3.18,0,0,1,438.21,252.86Z" transform="translate(-35.6 -112.79)"/><path class="cls-4" d="M393.16,133.82a42,42,0,0,0-4.13-7.3l1.16-.82a41.33,41.33,0,0,1,4.26,7.56Z" transform="translate(-35.6 -112.79)"/><rect class="cls-4" x="384.28" y="164.06" width="25.01" height="1.42" transform="translate(180.28 441.68) rotate(-87.65)"/><path class="cls-4" d="M387.59,286.81,393,152.29a37.66,37.66,0,0,0-35.76-39.46c-.71,0-1.43,0-2.15,0H124a37.64,37.64,0,0,1,38,37.32c0,.72,0,1.45-.05,2.18h0l-5.41,134.52c-.88,21.81,26.5,39.49,48.29,39.49H425.5A37.62,37.62,0,0,1,387.55,289C387.54,288.26,387.56,287.53,387.59,286.81Z" transform="translate(-35.6 -112.79)"/><path class="cls-7" d="M345.63,415.45h-297A12.26,12.26,0,0,1,36.31,403.3c0-.21,0-.42,0-.64l8.38-207.9A13.48,13.48,0,0,1,58.05,182H355a12.26,12.26,0,0,1,12.34,12.15c0,.21,0,.42,0,.63L359,402.66A13.51,13.51,0,0,1,345.63,415.45Z" transform="translate(-35.6 -112.79)"/><path class="cls-4" d="M345.63,416.16h-297a13,13,0,0,1-13-12.88c0-.24,0-.47,0-.7L44,194.68a14.2,14.2,0,0,1,14.06-13.52H355A12.93,12.93,0,0,1,368.08,194c0,.25,0,.5,0,.76l-8.37,207.9A14.21,14.21,0,0,1,345.63,416.16ZM58.05,182.58a12.79,12.79,0,0,0-12.64,12.16L37,402.64A11.53,11.53,0,0,0,48,414.72l.67,0h297a12.79,12.79,0,0,0,12.65-12.16l8.37-207.9a11.54,11.54,0,0,0-10.95-12.09H58.05Z" transform="translate(-35.6 -112.79)"/><path class="cls-4" d="M346.66,193.27H65.47a9.5,9.5,0,0,0-9.42,9L49.26,371.21H348.55l6.81-168.89a8.63,8.63,0,0,0-8.19-9Z" transform="translate(-35.6 -112.79)"/><path class="cls-8" d="M91.77,181.16,85.05,348.23a8.14,8.14,0,0,0,7.75,8.51H307.31a9,9,0,0,0,8.89-8.52l6.73-167.07Z" transform="translate(-35.6 -112.79)"/><path class="cls-4" d="M315.62,112.79H123.89a41.46,41.46,0,0,0-41.07,39.5l-8,198.82a8.15,8.15,0,0,0,7.78,8.51H297.13a9,9,0,0,0,8.89-8.52l8-198.82a41.48,41.48,0,0,1,41.08-39.5Z" transform="translate(-35.6 -112.79)"/><path class="cls-5" d="M315.62,112.79H123.89a41.46,41.46,0,0,0-41.07,39.5l-8,198.82a8.15,8.15,0,0,0,7.78,8.51H297.13a9,9,0,0,0,8.89-8.52l8-198.82a41.48,41.48,0,0,1,41.08-39.5Z" transform="translate(-35.6 -112.79)"/><path class="cls-4" d="M360.28,371.92H37.59a.71.71,0,1,1,0-1.42H360.28a.71.71,0,0,1,0,1.42Z" transform="translate(-35.6 -112.79)"/><path class="cls-9" d="M293.24,250H95.83a4.59,4.59,0,0,1-4.63-4.56v-.25l3-75.6a5.05,5.05,0,0,1,5-4.8H296.66a4.59,4.59,0,0,1,4.63,4.54v.26l-3.05,75.56A5,5,0,0,1,293.24,250Z" transform="translate(-35.6 -112.79)"/><path class="cls-10" d="M204.06,335.23H92.37a4.58,4.58,0,0,1-4.63-4.55c0-.1,0-.2,0-.3l2.7-66.24a5,5,0,0,1,5-4.77H207.17a4.58,4.58,0,0,1,4.62,4.55v.26l-2.66,66.2A5.06,5.06,0,0,1,204.06,335.23Z" transform="translate(-35.6 -112.79)"/><path class="cls-7" d="M289.8,335.23H223.53a4.59,4.59,0,0,1-4.63-4.56v-.25l2.67-66.28a5.07,5.07,0,0,1,5-4.81h66.26a4.6,4.6,0,0,1,4.64,4.56,2,2,0,0,1,0,.25l-2.67,66.24A5,5,0,0,1,289.8,335.23Z" transform="translate(-35.6 -112.79)"/><path class="cls-11" d="M227.67,324.55l2.2-54.54a2.25,2.25,0,0,1,2.23-2.16h54.56a2,2,0,0,1,2.06,2V270l-2.2,54.54a2.24,2.24,0,0,1-2.23,2.16H229.73a2.07,2.07,0,0,1-2.07-2A.41.41,0,0,1,227.67,324.55Z" transform="translate(-35.6 -112.79)"/><polygon class="cls-4" points="232.93 187.72 229.94 192.49 220.2 174.63 195.62 213.92 247.21 213.92 232.93 187.72"/><path class="cls-7" d="M282.43,280.53a7.11,7.11,0,0,1-7.1,6.82,6.49,6.49,0,0,1-6.54-6.44v-.38a7.1,7.1,0,0,1,7.11-6.8,6.49,6.49,0,0,1,6.54,6.44C282.44,280.29,282.43,280.41,282.43,280.53Z" transform="translate(-35.6 -112.79)"/></g><path class="cls-7" d="M172.84,308.49a10.4,10.4,0,0,0-7.9-6.71l-7.36-1.36a11.07,11.07,0,0,1-3.9,8.21l5.7,4.86a10.4,10.4,0,0,0,10.2,1.87l3.38-1.2" transform="translate(-35.6 -112.79)"/><path class="cls-7" d="M141.18,290.52a11,11,0,0,1,9.06-.73l1.36-7.37a10.41,10.41,0,0,0-3.48-9.77l-2.74-2.33a1.76,1.76,0,0,0-2.5.19h0l-2.35,2.74a10.43,10.43,0,0,0-1.87,10.2Z" transform="translate(-35.6 -112.79)"/><path class="cls-7" d="M152.23,290.74a11,11,0,0,1,5.17,7.47l7.06-2.51a10.4,10.4,0,0,0,6.72-7.89l.64-3.53a1.77,1.77,0,0,0-1.42-2.07h0l-3.53-.65a10.43,10.43,0,0,0-9.77,3.48Z" transform="translate(-35.6 -112.79)"/><path class="cls-7" d="M120.19,291.91a10.39,10.39,0,0,0,7.9,6.72l7.36,1.35a11.08,11.08,0,0,1,3.91-8.21l-5.71-4.86a10.39,10.39,0,0,0-10.19-1.86l-3.38,1.21a1.79,1.79,0,0,0-1.09,2.26h0Z" transform="translate(-35.6 -112.79)"/><path class="cls-7" d="M140.8,309.67a11,11,0,0,1-5.17-7.48l-7,2.52a10.36,10.36,0,0,0-6.72,7.89l-.64,3.54a1.78,1.78,0,0,0,1.42,2.07l3.54.64a10.38,10.38,0,0,0,9.76-3.48Z" transform="translate(-35.6 -112.79)"/><path class="cls-7" d="M151.86,309.9a11.11,11.11,0,0,1-9.07.73L141.43,318a10.4,10.4,0,0,0,3.48,9.76l2.74,2.34a1.79,1.79,0,0,0,2.51-.19h0l2.33-2.74A10.38,10.38,0,0,0,154.36,317Z" transform="translate(-35.6 -112.79)"/><path class="cls-7" d="M140.61,305.94a8.37,8.37,0,1,0-1.48-2.09l-6.28,4.48,1.49,2.09,6.28-4.49Zm.26-6.77a5.77,5.77,0,1,1,4.74,6.64h0a5.79,5.79,0,0,1-4.74-6.64Z" transform="translate(-35.6 -112.79)"/><polygon class="cls-5" points="116.73 58.29 146.87 76.1 146.87 111.72 116.73 129.53 86.59 111.72 86.59 76.1 116.73 58.29"/><polygon class="cls-5" points="146.87 76.1 116.73 93.91 86.59 76.1 116.73 58.29 146.87 76.1"/><polygon class="cls-4" points="116.73 93.91 116.73 129.53 146.87 111.72 146.87 76.1 116.73 93.91"/><polygon class="cls-12" points="137.05 81.9 137.05 94.23 127.24 100.03 127.24 87.7 97.1 69.89 106.91 64.09 137.05 81.9"/><polygon class="cls-12" points="137.05 81.9 137.05 94.23 127.24 100.03 127.24 87.7 137.05 81.9"/><path class="cls-12" d="M127.67,223.14a1.37,1.37,0,0,1-1.37-1.37v-5.48a1.37,1.37,0,1,1,2.74,0v5.48A1.37,1.37,0,0,1,127.67,223.14Z" transform="translate(-35.6 -112.79)"/><path class="cls-12" d="M133.15,225.88a1.37,1.37,0,0,1-1.37-1.37V219a1.37,1.37,0,0,1,2.74,0v5.48A1.37,1.37,0,0,1,133.15,225.88Z" transform="translate(-35.6 -112.79)"/></svg>